# xmcd
#
# Track frame offsets:
#	150
#	14972
#	31625
#	46850
#	56164
#	71985
#	88967
#	113460
#	132422
#	145672
#	159360
#	174497
#	192657
#	204262
#	217905
#	233370
#	256657
#	272705
#	287197
#	307605
#
# Disc length: 4372
#
# Revision: 4
# Processed by: cddbd v1.5.1PL0 Copyright (c) Steve Scherf et al.
# Submitted via: CDex 1.40PlusFr
# Normalized: r3:DSETVAR1,TDELIM( - )
#
DISCID=17111214
DTITLE=Various Artist - Au coeur des slows (Volume 4) Français
DYEAR=1996
DGENRE=Chanson
TTITLE0=Alain Souchon - Y'a d'la rumba dans l'air
TTITLE1=Jacques Dutronc - Gentleman cambrioleur
TTITLE2=Claude Nougaro - Dansez sur moi
TTITLE3=Sacha Distel - La belle vie
TTITLE4=Joe Dassin - Le dernier slow
TTITLE5=Léo Ferre - C'est extra
TTITLE6=Robert Charlebois - Lindberg
TTITLE7=Claude François - Comme d'habitude
TTITLE8=Eddy Mitchell - La fille du motel
TTITLE9=Lucky Blondo - Sur ton visage une larme
TTITLE10=Richard Anthony - J'entends siffler le train
TTITLE11=Johnny Hallyday - Le Pénitencier
TTITLE12=Brigitte Bardot - La madrague
TTITLE13=Adamo - Tombe la neige
TTITLE14=Michel Fugain - Je n'aurai pas le temps
TTITLE15=Alain Bashung - Les mots bleus
TTITLE16=Michel Sardou - Petit
TTITLE17=Les charts - Aime moi encore
TTITLE18=Stan Cuesta - Bizarre
TTITLE19=Guy Bedos et Sophie Daumier - La drague
EXTD=YEAR: 1996 ID3G: 102
EXTT0=Alain Souchon\n
EXTT1=Jacques Dutronc\n
EXTT2=Claude Nougaro\n
EXTT3=Sacha Distel\n
EXTT4=Joe Dassin\n
EXTT5=Léo Ferre\n
EXTT6=Robert Charlebois\n
EXTT7=Claude François\n
EXTT8=Eddy Mitchell\n
EXTT9=Lucky Blondo\n
EXTT10=Richard Anthony\n
EXTT11=Johnny Hallyday\n
EXTT12=Brigitte Bardot\n
EXTT13=Adamo\n
EXTT14=Michel Fugain\n
EXTT15=Alain Bashung\n
EXTT16=Michel Sardou\n
EXTT17=Les charts\n
EXTT18=Stan Cuesta\n
EXTT19=Guy Bedos et Sophie Daumier\n
PLAYORDER=
